<svg width="21" height="22" viewBox="0 0 21 22" fill="none" xmlns="http://www.w3.org/2000/svg">
<path d="M14 18.625V16.875C14 15.9467 13.6313 15.0565 12.9749 14.4001C12.3185 13.7437 11.4283 13.375 10.5 13.375H5.25C4.32174 13.375 3.4315 13.7437 2.77513 14.4001C2.11875 15.0565 1.75 15.9467 1.75 16.875V18.625" stroke="#155DFC" stroke-width="1.75" stroke-linecap="round" stroke-linejoin="round"/>
<path d="M14 2.98706C14.7505 3.18163 15.4152 3.61992 15.8897 4.23312C16.3642 4.84631 16.6217 5.59971 16.6217 6.37506C16.6217 7.15041 16.3642 7.90381 15.8897 8.51701C15.4152 9.1302 14.7505 9.56849 14 9.76306" stroke="#155DFC" stroke-width="1.75" stroke-linecap="round" stroke-linejoin="round"/>
<path d="M19.25 18.625V16.875C19.2494 16.0995 18.9913 15.3462 18.5162 14.7333C18.0411 14.1204 17.3759 13.6826 16.625 13.4888" stroke="#155DFC" stroke-width="1.75" stroke-linecap="round" stroke-linejoin="round"/>
<path d="M7.875 9.875C9.808 9.875 11.375 8.308 11.375 6.375C11.375 4.442 9.808 2.875 7.875 2.875C5.942 2.875 4.375 4.442 4.375 6.375C4.375 8.308 5.942 9.875 7.875 9.875Z" stroke="#155DFC" stroke-width="1.75" stroke-linecap="round" stroke-linejoin="round"/>
</svg>
