<svg width="35" height="36" viewBox="0 0 35 36" fill="none" xmlns="http://www.w3.org/2000/svg">
<rect y="0.25" width="35" height="35" rx="17.5" fill="#00C950" fill-opacity="0.1"/>
<path d="M26.0759 16.0001C26.4755 17.9612 26.1907 20 25.269 21.7766C24.3473 23.5532 22.8444 24.9601 21.011 25.7627C19.1775 26.5653 17.1243 26.7151 15.1938 26.1871C13.2633 25.6591 11.5721 24.4853 10.4023 22.8613C9.23247 21.2373 8.65476 19.2614 8.76548 17.263C8.87621 15.2646 9.66867 13.3646 11.0107 11.8798C12.3528 10.395 14.1633 9.41518 16.1403 9.1037C18.1174 8.79222 20.1415 9.16793 21.875 10.1682" stroke="#00A63E" stroke-width="1.75" stroke-linecap="round" stroke-linejoin="round"/>
<path d="M14.875 16.875L17.5 19.5L26.25 10.75" stroke="#00A63E" stroke-width="1.75" stroke-linecap="round" stroke-linejoin="round"/>
</svg>
