<svg width="35" height="36" viewBox="0 0 35 36" fill="none" xmlns="http://www.w3.org/2000/svg">
<rect y="0.25" width="35" height="35" rx="17.5" fill="#2B7FFF" fill-opacity="0.1"/>
<path d="M21 25.625V23.875C21 22.9467 20.6313 22.0565 19.9749 21.4001C19.3185 20.7437 18.4283 20.375 17.5 20.375H12.25C11.3217 20.375 10.4315 20.7437 9.77513 21.4001C9.11875 22.0565 8.75 22.9467 8.75 23.875V25.625" stroke="#155DFC" stroke-width="1.75" stroke-linecap="round" stroke-linejoin="round"/>
<path d="M21 9.98706C21.7505 10.1816 22.4152 10.6199 22.8897 11.2331C23.3642 11.8463 23.6217 12.5997 23.6217 13.3751C23.6217 14.1504 23.3642 14.9038 22.8897 15.517C22.4152 16.1302 21.7505 16.5685 21 16.7631" stroke="#155DFC" stroke-width="1.75" stroke-linecap="round" stroke-linejoin="round"/>
<path d="M26.25 25.625V23.875C26.2494 23.0995 25.9913 22.3462 25.5162 21.7333C25.0411 21.1204 24.3759 20.6826 23.625 20.4888" stroke="#155DFC" stroke-width="1.75" stroke-linecap="round" stroke-linejoin="round"/>
<path d="M14.875 16.875C16.808 16.875 18.375 15.308 18.375 13.375C18.375 11.442 16.808 9.875 14.875 9.875C12.942 9.875 11.375 11.442 11.375 13.375C11.375 15.308 12.942 16.875 14.875 16.875Z" stroke="#155DFC" stroke-width="1.75" stroke-linecap="round" stroke-linejoin="round"/>
</svg>
